<svg width="900" height="400" xmlns="http://www.w3.org/2000/svg" xmlns:xlink="http://www.w3.org/1999/xlink" version="1.1" baseProfile="full" viewBox="0 0 900 400">
<rect width="900" height="400" x="0" y="0" id="0" fill="none"></rect>
<path d="M90 330.5L810 330.5" fill="none" stroke="#E0E6F1"></path>
<path d="M90 291.5L810 291.5" fill="none" stroke="#E0E6F1"></path>
<path d="M90 253.5L810 253.5" fill="none" stroke="#E0E6F1"></path>
<path d="M90 214.5L810 214.5" fill="none" stroke="#E0E6F1"></path>
<path d="M90 175.5L810 175.5" fill="none" stroke="#E0E6F1"></path>
<path d="M90 137.5L810 137.5" fill="none" stroke="#E0E6F1"></path>
<path d="M90 98.5L810 98.5" fill="none" stroke="#E0E6F1"></path>
<path d="M90 60.5L810 60.5" fill="none" stroke="#E0E6F1"></path>
<path d="M90 330.5L810 330.5" fill="none" stroke="#6E7079" stroke-linecap="round"></path>
<path d="M90.5 330L90.5 335" fill="none" stroke="#6E7079"></path>
<path d="M234.5 330L234.5 335" fill="none" stroke="#6E7079"></path>
<path d="M378.5 330L378.5 335" fill="none" stroke="#6E7079"></path>
<path d="M522.5 330L522.5 335" fill="none" stroke="#6E7079"></path>
<path d="M666.5 330L666.5 335" fill="none" stroke="#6E7079"></path>
<path d="M810.5 330L810.5 335" fill="none" stroke="#6E7079"></path>
<text dominant-baseline="central" text-anchor="end" style="font-size:12px;font-family:sans-serif;" xml:space="preserve" transform="translate(82 330)" fill="#6E7079">0 ms</text>
<text dominant-baseline="central" text-anchor="end" style="font-size:12px;font-family:sans-serif;" xml:space="preserve" transform="translate(82 291.4286)" fill="#6E7079">0.3 ms</text>
<text dominant-baseline="central" text-anchor="end" style="font-size:12px;font-family:sans-serif;" xml:space="preserve" transform="translate(82 252.8571)" fill="#6E7079">0.6 ms</text>
<text dominant-baseline="central" text-anchor="end" style="font-size:12px;font-family:sans-serif;" xml:space="preserve" transform="translate(82 214.2857)" fill="#6E7079">0.9 ms</text>
<text dominant-baseline="central" text-anchor="end" style="font-size:12px;font-family:sans-serif;" xml:space="preserve" transform="translate(82 175.7143)" fill="#6E7079">1.2 ms</text>
<text dominant-baseline="central" text-anchor="end" style="font-size:12px;font-family:sans-serif;" xml:space="preserve" transform="translate(82 137.1429)" fill="#6E7079">1.5 ms</text>
<text dominant-baseline="central" text-anchor="end" style="font-size:12px;font-family:sans-serif;" xml:space="preserve" transform="translate(82 98.5714)" fill="#6E7079">1.8 ms</text>
<text dominant-baseline="central" text-anchor="end" style="font-size:12px;font-family:sans-serif;" xml:space="preserve" transform="translate(82 60)" fill="#6E7079">2.1 ms</text>
<text dominant-baseline="central" text-anchor="middle" style="font-size:12px;font-family:sans-serif;" y="6" transform="translate(162 338)" fill="#6E7079">P50</text>
<text dominant-baseline="central" text-anchor="middle" style="font-size:12px;font-family:sans-serif;" y="6" transform="translate(306 338)" fill="#6E7079">P75</text>
<text dominant-baseline="central" text-anchor="middle" style="font-size:12px;font-family:sans-serif;" y="6" transform="translate(450 338)" fill="#6E7079">P90</text>
<text dominant-baseline="central" text-anchor="middle" style="font-size:12px;font-family:sans-serif;" y="6" transform="translate(594 338)" fill="#6E7079">P99</text>
<text dominant-baseline="central" text-anchor="middle" style="font-size:12px;font-family:sans-serif;" y="6" transform="translate(738 338)" fill="#6E7079">P99.9</text>
<path d="M103.7 330l25.4 0l0 -69.4l-25.4 0Z" fill="#5470c6"></path>
<path d="M247.7 330l25.4 0l0 -99l-25.4 0Z" fill="#5470c6"></path>
<path d="M391.7 330l25.4 0l0 -117l-25.4 0Z" fill="#5470c6"></path>
<path d="M535.7 330l25.4 0l0 -127.3l-25.4 0Z" fill="#5470c6"></path>
<path d="M679.7 330l25.4 0l0 -205.7l-25.4 0Z" fill="#5470c6"></path>
<path d="M134.1 330l25.4 0l0 -68.1l-25.4 0Z" fill="#91cc75"></path>
<path d="M278.1 330l25.4 0l0 -99l-25.4 0Z" fill="#91cc75"></path>
<path d="M422.1 330l25.4 0l0 -117l-25.4 0Z" fill="#91cc75"></path>
<path d="M566.1 330l25.4 0l0 -127.3l-25.4 0Z" fill="#91cc75"></path>
<path d="M710.1 330l25.4 0l0 -250.7l-25.4 0Z" fill="#91cc75"></path>
<path d="M164.5 330l25.4 0l0 -68.1l-25.4 0Z" fill="#fac858"></path>
<path d="M308.5 330l25.4 0l0 -99l-25.4 0Z" fill="#fac858"></path>
<path d="M452.5 330l25.4 0l0 -117l-25.4 0Z" fill="#fac858"></path>
<path d="M596.5 330l25.4 0l0 -127.3l-25.4 0Z" fill="#fac858"></path>
<path d="M740.5 330l25.4 0l0 -163.3l-25.4 0Z" fill="#fac858"></path>
<path d="M195 330l25.4 0l0 -68.1l-25.4 0Z" fill="#ee6666"></path>
<path d="M339 330l25.4 0l0 -99l-25.4 0Z" fill="#ee6666"></path>
<path d="M483 330l25.4 0l0 -117l-25.4 0Z" fill="#ee6666"></path>
<path d="M627 330l25.4 0l0 -127.3l-25.4 0Z" fill="#ee6666"></path>
<path d="M771 330l25.4 0l0 -212.1l-25.4 0Z" fill="#ee6666"></path>
<path d="M-5 -5l479.8 0l0 24l-479.8 0Z" transform="translate(215.1 5)" fill="rgb(0,0,0)" fill-opacity="0" stroke="#ccc" stroke-width="0"></path>
<path d="M3.5 0L21.5 0A3.5 3.5 0 0 1 25 3.5L25 10.5A3.5 3.5 0 0 1 21.5 14L3.5 14A3.5 3.5 0 0 1 0 10.5L0 3.5A3.5 3.5 0 0 1 3.5 0" transform="translate(215.1 5)" fill="#5470c6"></path>
<text dominant-baseline="central" text-anchor="start" style="font-size:12px;font-family:sans-serif;" x="30" y="7" transform="translate(215.1 5)" fill="#333">lua-basic-auth</text>
<path d="M3.5 0L21.5 0A3.5 3.5 0 0 1 25 3.5L25 10.5A3.5 3.5 0 0 1 21.5 14L3.5 14A3.5 3.5 0 0 1 0 10.5L0 3.5A3.5 3.5 0 0 1 3.5 0" transform="translate(330.7 5)" fill="#91cc75"></path>
<text dominant-baseline="central" text-anchor="start" style="font-size:12px;font-family:sans-serif;" x="30" y="7" transform="translate(330.7 5)" fill="#333">go-basic-auth</text>
<path d="M3.5 0L21.5 0A3.5 3.5 0 0 1 25 3.5L25 10.5A3.5 3.5 0 0 1 21.5 14L3.5 14A3.5 3.5 0 0 1 0 10.5L0 3.5A3.5 3.5 0 0 1 3.5 0" transform="translate(443.66 5)" fill="#fac858"></path>
<text dominant-baseline="central" text-anchor="start" style="font-size:12px;font-family:sans-serif;" x="30" y="7" transform="translate(443.66 5)" fill="#333">rust-basic-auth</text>
<path d="M3.5 0L21.5 0A3.5 3.5 0 0 1 25 3.5L25 10.5A3.5 3.5 0 0 1 21.5 14L3.5 14A3.5 3.5 0 0 1 0 10.5L0 3.5A3.5 3.5 0 0 1 3.5 0" transform="translate(563.22 5)" fill="#ee6666"></path>
<text dominant-baseline="central" text-anchor="start" style="font-size:12px;font-family:sans-serif;" x="30" y="7" transform="translate(563.22 5)" fill="#333">tinygo-basic-auth</text>
<path d="M-5 -5l123.4 0l0 50l-123.4 0Z" transform="translate(781.6 5)" fill="rgb(0,0,0)" fill-opacity="0" stroke="#ccc" stroke-width="0"></path>
<text dominant-baseline="central" text-anchor="start" style="font-size:18px;font-family:sans-serif;font-weight:bold;" xml:space="preserve" y="9" transform="translate(781.6 5)" fill="#464646">response time</text>
<text dominant-baseline="central" text-anchor="start" style="font-size:12px;font-family:sans-serif;" y="34" transform="translate(781.6 5)" fill="#6E7079">basic_auth</text>
</svg>