<svg width="900" height="400" xmlns="http://www.w3.org/2000/svg" xmlns:xlink="http://www.w3.org/1999/xlink" version="1.1" baseProfile="full" viewBox="0 0 900 400">
<rect width="900" height="400" x="0" y="0" id="0" fill="none"></rect>
<path d="M90 330.5L810 330.5" fill="none" stroke="#E0E6F1"></path>
<path d="M90 285.5L810 285.5" fill="none" stroke="#E0E6F1"></path>
<path d="M90 240.5L810 240.5" fill="none" stroke="#E0E6F1"></path>
<path d="M90 195.5L810 195.5" fill="none" stroke="#E0E6F1"></path>
<path d="M90 150.5L810 150.5" fill="none" stroke="#E0E6F1"></path>
<path d="M90 105.5L810 105.5" fill="none" stroke="#E0E6F1"></path>
<path d="M90 60.5L810 60.5" fill="none" stroke="#E0E6F1"></path>
<path d="M90 330.5L810 330.5" fill="none" stroke="#6E7079" stroke-linecap="round"></path>
<path d="M90.5 330L90.5 335" fill="none" stroke="#6E7079"></path>
<path d="M234.5 330L234.5 335" fill="none" stroke="#6E7079"></path>
<path d="M378.5 330L378.5 335" fill="none" stroke="#6E7079"></path>
<path d="M522.5 330L522.5 335" fill="none" stroke="#6E7079"></path>
<path d="M666.5 330L666.5 335" fill="none" stroke="#6E7079"></path>
<path d="M810.5 330L810.5 335" fill="none" stroke="#6E7079"></path>
<text dominant-baseline="central" text-anchor="end" style="font-size:12px;font-family:sans-serif;" xml:space="preserve" transform="translate(82 330)" fill="#6E7079">0 ms</text>
<text dominant-baseline="central" text-anchor="end" style="font-size:12px;font-family:sans-serif;" xml:space="preserve" transform="translate(82 285)" fill="#6E7079">0.3 ms</text>
<text dominant-baseline="central" text-anchor="end" style="font-size:12px;font-family:sans-serif;" xml:space="preserve" transform="translate(82 240)" fill="#6E7079">0.6 ms</text>
<text dominant-baseline="central" text-anchor="end" style="font-size:12px;font-family:sans-serif;" xml:space="preserve" transform="translate(82 195)" fill="#6E7079">0.9 ms</text>
<text dominant-baseline="central" text-anchor="end" style="font-size:12px;font-family:sans-serif;" xml:space="preserve" transform="translate(82 150)" fill="#6E7079">1.2 ms</text>
<text dominant-baseline="central" text-anchor="end" style="font-size:12px;font-family:sans-serif;" xml:space="preserve" transform="translate(82 105)" fill="#6E7079">1.5 ms</text>
<text dominant-baseline="central" text-anchor="end" style="font-size:12px;font-family:sans-serif;" xml:space="preserve" transform="translate(82 60)" fill="#6E7079">1.8 ms</text>
<text dominant-baseline="central" text-anchor="middle" style="font-size:12px;font-family:sans-serif;" y="6" transform="translate(162 338)" fill="#6E7079">P50</text>
<text dominant-baseline="central" text-anchor="middle" style="font-size:12px;font-family:sans-serif;" y="6" transform="translate(306 338)" fill="#6E7079">P75</text>
<text dominant-baseline="central" text-anchor="middle" style="font-size:12px;font-family:sans-serif;" y="6" transform="translate(450 338)" fill="#6E7079">P90</text>
<text dominant-baseline="central" text-anchor="middle" style="font-size:12px;font-family:sans-serif;" y="6" transform="translate(594 338)" fill="#6E7079">P99</text>
<text dominant-baseline="central" text-anchor="middle" style="font-size:12px;font-family:sans-serif;" y="6" transform="translate(738 338)" fill="#6E7079">P99.9</text>
<path d="M100.8 330l21.1 0l0 -81l-21.1 0Z" fill="#5470c6"></path>
<path d="M244.8 330l21.1 0l0 -115.5l-21.1 0Z" fill="#5470c6"></path>
<path d="M388.8 330l21.1 0l0 -136.5l-21.1 0Z" fill="#5470c6"></path>
<path d="M532.8 330l21.1 0l0 -148.5l-21.1 0Z" fill="#5470c6"></path>
<path d="M676.8 330l21.1 0l0 -213l-21.1 0Z" fill="#5470c6"></path>
<path d="M126.1 330l21.1 0l0 -79.5l-21.1 0Z" fill="#91cc75"></path>
<path d="M270.1 330l21.1 0l0 -115.5l-21.1 0Z" fill="#91cc75"></path>
<path d="M414.1 330l21.1 0l0 -136.5l-21.1 0Z" fill="#91cc75"></path>
<path d="M558.1 330l21.1 0l0 -148.5l-21.1 0Z" fill="#91cc75"></path>
<path d="M702.1 330l21.1 0l0 -229.5l-21.1 0Z" fill="#91cc75"></path>
<path d="M151.4 330l21.1 0l0 -79.5l-21.1 0Z" fill="#fac858"></path>
<path d="M295.4 330l21.1 0l0 -115.5l-21.1 0Z" fill="#fac858"></path>
<path d="M439.4 330l21.1 0l0 -136.5l-21.1 0Z" fill="#fac858"></path>
<path d="M583.4 330l21.1 0l0 -148.5l-21.1 0Z" fill="#fac858"></path>
<path d="M727.4 330l21.1 0l0 -207l-21.1 0Z" fill="#fac858"></path>
<path d="M176.8 330l21.1 0l0 -79.5l-21.1 0Z" fill="#ee6666"></path>
<path d="M320.8 330l21.1 0l0 -115.5l-21.1 0Z" fill="#ee6666"></path>
<path d="M464.8 330l21.1 0l0 -136.5l-21.1 0Z" fill="#ee6666"></path>
<path d="M608.8 330l21.1 0l0 -148.5l-21.1 0Z" fill="#ee6666"></path>
<path d="M752.8 330l21.1 0l0 -216l-21.1 0Z" fill="#ee6666"></path>
<path d="M202.1 330l21.1 0l0 -79.5l-21.1 0Z" fill="#73c0de"></path>
<path d="M346.1 330l21.1 0l0 -115.5l-21.1 0Z" fill="#73c0de"></path>
<path d="M490.1 330l21.1 0l0 -136.5l-21.1 0Z" fill="#73c0de"></path>
<path d="M634.1 330l21.1 0l0 -148.5l-21.1 0Z" fill="#73c0de"></path>
<path d="M778.1 330l21.1 0l0 -175.5l-21.1 0Z" fill="#73c0de"></path>
<path d="M-5 -5l625.3 0l0 24l-625.3 0Z" transform="translate(142.36 5)" fill="rgb(0,0,0)" fill-opacity="0" stroke="#ccc" stroke-width="0"></path>
<path d="M3.5 0L21.5 0A3.5 3.5 0 0 1 25 3.5L25 10.5A3.5 3.5 0 0 1 21.5 14L3.5 14A3.5 3.5 0 0 1 0 10.5L0 3.5A3.5 3.5 0 0 1 3.5 0" transform="translate(142.36 5)" fill="#5470c6"></path>
<text dominant-baseline="central" text-anchor="start" style="font-size:12px;font-family:sans-serif;" x="30" y="7" transform="translate(142.36 5)" fill="#333">go-passthrough</text>
<path d="M3.5 0L21.5 0A3.5 3.5 0 0 1 25 3.5L25 10.5A3.5 3.5 0 0 1 21.5 14L3.5 14A3.5 3.5 0 0 1 0 10.5L0 3.5A3.5 3.5 0 0 1 3.5 0" transform="translate(266.12 5)" fill="#91cc75"></path>
<text dominant-baseline="central" text-anchor="start" style="font-size:12px;font-family:sans-serif;" x="30" y="7" transform="translate(266.12 5)" fill="#333">rust-passthrough</text>
<path d="M3.5 0L21.5 0A3.5 3.5 0 0 1 25 3.5L25 10.5A3.5 3.5 0 0 1 21.5 14L3.5 14A3.5 3.5 0 0 1 0 10.5L0 3.5A3.5 3.5 0 0 1 3.5 0" transform="translate(396.48 5)" fill="#fac858"></path>
<text dominant-baseline="central" text-anchor="start" style="font-size:12px;font-family:sans-serif;" x="30" y="7" transform="translate(396.48 5)" fill="#333">lua-passthrough</text>
<path d="M3.5 0L21.5 0A3.5 3.5 0 0 1 25 3.5L25 10.5A3.5 3.5 0 0 1 21.5 14L3.5 14A3.5 3.5 0 0 1 0 10.5L0 3.5A3.5 3.5 0 0 1 3.5 0" transform="translate(522.88 5)" fill="#ee6666"></path>
<text dominant-baseline="central" text-anchor="start" style="font-size:12px;font-family:sans-serif;" x="30" y="7" transform="translate(522.88 5)" fill="#333">tinygo-passthrough</text>
<path d="M3.5 0L21.5 0A3.5 3.5 0 0 1 25 3.5L25 10.5A3.5 3.5 0 0 1 21.5 14L3.5 14A3.5 3.5 0 0 1 0 10.5L0 3.5A3.5 3.5 0 0 1 3.5 0" transform="translate(665.36 5)" fill="#73c0de"></path>
<text dominant-baseline="central" text-anchor="start" style="font-size:12px;font-family:sans-serif;" x="30" y="7" transform="translate(665.36 5)" fill="#333">envoy-base</text>
<path d="M-5 -5l123.4 0l0 50l-123.4 0Z" transform="translate(781.6 5)" fill="rgb(0,0,0)" fill-opacity="0" stroke="#ccc" stroke-width="0"></path>
<text dominant-baseline="central" text-anchor="start" style="font-size:18px;font-family:sans-serif;font-weight:bold;" xml:space="preserve" y="9" transform="translate(781.6 5)" fill="#464646">response time</text>
<text dominant-baseline="central" text-anchor="start" style="font-size:12px;font-family:sans-serif;" y="34" transform="translate(781.6 5)" fill="#6E7079">passthrough</text>
</svg>